# xmcd CD database file
#
# Track frame offsets:
#	150
#	21825
#	36400
#	58077
#
# Disc length: 965 seconds
#
# Revision: 1
# Processed by: cddbd v1.5PL3 Copyright (c) Steve Scherf et al.
# Submitted via: CDex 1.51
#
DISCID=3103c304
DTITLE=けん♀♂けん - 銀座あたりでギン！ギン！ギン！
DYEAR=2001
DGENRE=JPop
TTITLE0=銀座あたりでギン！ギン！ギン！
TTITLE1=LOVE TOKYO NIGHT
TTITLE2=銀座あたりでギン！ギン！ギン！（オリジナルカラオケ）
TTITLE3=LOVE TOKYO NIGHT（オリジナルカラオケ）
EXTD=YEAR: 2001
EXTT0=
EXTT1=
EXTT2=
EXTT3=
PLAYORDER=
